<svg xmlns="http://www.w3.org/2000/svg" version="1.1" xmlns:xlink="http://www.w3.org/1999/xlink" xmlns:svgjs="http://svgjs.dev/svgjs" width="128" height="128" viewBox="0 0 128 128"><g transform="matrix(0.8046875,0,0,0.8046875,12.333870967741937,12.333870967741937)"><svg viewBox="0 0 155 155" data-background-color="#ffffff" preserveAspectRatio="xMidYMid meet" height="128" width="128" xmlns="http://www.w3.org/2000/svg" xmlns:xlink="http://www.w3.org/1999/xlink"><g id="tight-bounds" transform="matrix(1,0,0,1,0.25,0.25)"><svg viewBox="0 0 154.5 154.5" height="154.5" width="154.5"><g><svg></svg></g><g><svg viewBox="0 0 154.5 154.5" height="154.5" width="154.5"><mask id="06151a8c-70da-4c33-bc31-c556c1796a64"><rect width="250" height="250" fill="white"></rect><g transform="matrix(1,0,0,1,49.142780625,29.509500000000003)"><svg viewBox="0 0 56.21443875 95.481" height="95.481" width="56.21443875"><g><svg viewBox="0 0 56.21443875 95.481" height="95.481" width="56.21443875"><g><svg viewBox="0 0 56.21443875 95.481" height="95.481" width="56.21443875"><g id="SvgjsG1644"><svg viewBox="0 0 56.21443875 95.481" height="95.481" width="56.21443875" id="SvgjsSvg1643"><g><svg viewBox="0 0 56.21443875 95.481" height="95.481" width="56.21443875"><g transform="matrix(1,0,0,1,0,0)"><svg width="56.21443875" viewBox="0.10000000000000009 -38 24.549999999999997 41" height="95.481" data-palette-color="#77c5e7"><path d="M18.05 0L6.7 0Q5.3 0 4.2-1.05 3.1-2.1 3.1-3.6L3.1-3.6 3.1-31.4Q3.1-32.85 4.2-33.93 5.3-35 6.7-35L6.7-35 18.05-35Q19.6-35 20.63-33.93 21.65-32.85 21.65-31.4L21.65-31.4 21.65-24.9 17-23.85 17-28.55Q17-29.25 16.53-29.8 16.05-30.35 15.25-30.35L15.25-30.35 9.55-30.35Q8.85-30.35 8.3-29.8 7.75-29.25 7.75-28.55L7.75-28.55 7.75-6.45Q7.75-5.65 8.3-5.15 8.85-4.65 9.55-4.65L9.55-4.65 15.25-4.65Q16.05-4.65 16.53-5.15 17-5.65 17-6.45L17-6.45 17-10.1 21.65-11.2 21.65-3.6Q21.65-2.1 20.63-1.05 19.6 0 18.05 0L18.05 0Z" opacity="1" transform="matrix(1,0,0,1,0,0)" fill="black" class="wordmark-text-0" id="SvgjsPath1642" stroke-width="5" stroke="black" stroke-linejoin="round"></path></svg></g></svg></g></svg></g></svg></g><g></g></svg></g></svg></g></mask><g transform="matrix(1,0,0,1,49.142780625,29.509500000000003)"><svg viewBox="0 0 56.21443875 95.481" height="95.481" width="56.21443875"><g><svg viewBox="0 0 56.21443875 95.481" height="95.481" width="56.21443875"><g><svg viewBox="0 0 56.21443875 95.481" height="95.481" width="56.21443875"><g id="textblocktransform"><svg viewBox="0 0 56.21443875 95.481" height="95.481" width="56.21443875" id="textblock"><g><svg viewBox="0 0 56.21443875 95.481" height="95.481" width="56.21443875"><g transform="matrix(1,0,0,1,0,0)"><svg width="56.21443875" viewBox="0.10000000000000009 -38 24.549999999999997 41" height="95.481" data-palette-color="#77c5e7"><path d="M18.05 0L6.7 0Q5.3 0 4.2-1.05 3.1-2.1 3.1-3.6L3.1-3.6 3.1-31.4Q3.1-32.85 4.2-33.93 5.3-35 6.7-35L6.7-35 18.05-35Q19.6-35 20.63-33.93 21.65-32.85 21.65-31.4L21.65-31.4 21.65-24.9 17-23.85 17-28.55Q17-29.25 16.53-29.8 16.05-30.35 15.25-30.35L15.25-30.35 9.55-30.35Q8.85-30.35 8.3-29.8 7.75-29.25 7.75-28.55L7.75-28.55 7.75-6.45Q7.75-5.65 8.3-5.15 8.85-4.65 9.55-4.65L9.55-4.65 15.25-4.65Q16.05-4.65 16.53-5.15 17-5.65 17-6.45L17-6.45 17-10.1 21.65-11.2 21.65-3.6Q21.65-2.1 20.63-1.05 19.6 0 18.05 0L18.05 0Z" opacity="1" transform="matrix(1,0,0,1,0,0)" fill="#77c5e7" class="wordmark-text-0" data-fill-palette-color="primary" id="text-0"></path></svg></g></svg></g></svg></g></svg></g><g></g></svg></g></svg></g><g mask="url(#06151a8c-70da-4c33-bc31-c556c1796a64)"><g transform="matrix(2.21476705007552, 0, 0, 2.21476705007552, 31.120831881027065, 1.0000000000000142)"><svg xmlns="http://www.w3.org/2000/svg" xmlns:xlink="http://www.w3.org/1999/xlink" version="1.1" x="0" y="0" viewBox="29.172 15.572 41.656000000000006 68.856" style="enable-background:new 0 0 100 100;" xml:space="preserve" height="68.856" width="41.656000000000006" class="icon-none" data-fill-palette-color="accent" id="none"></svg></g></g></svg></g><defs></defs><mask id="c3a1de0b-ca08-4fa0-b435-d6bee702c6c6"><g id="SvgjsG1654"><svg viewBox="0 0 154.5 154.5" height="154.5" width="154.5"><g><svg></svg></g><g><svg viewBox="0 0 154.5 154.5" height="154.5" width="154.5"><mask id="SvgjsMask1653"><g transform="matrix(1,0,0,1,49.142780625,29.509500000000003)"><svg viewBox="0 0 56.21443875 95.481" height="95.481" width="56.21443875"><g><svg viewBox="0 0 56.21443875 95.481" height="95.481" width="56.21443875"><g><svg viewBox="0 0 56.21443875 95.481" height="95.481" width="56.21443875"><g id="SvgjsG1652"><svg viewBox="0 0 56.21443875 95.481" height="95.481" width="56.21443875" id="SvgjsSvg1651"><g><svg viewBox="0 0 56.21443875 95.481" height="95.481" width="56.21443875"><g transform="matrix(1,0,0,1,0,0)"><svg width="56.21443875" viewBox="0.10000000000000009 -38 24.549999999999997 41" height="95.481" data-palette-color="#77c5e7"></svg></g></svg></g></svg></g></svg></g><g></g></svg></g></svg></g></mask><g transform="matrix(1,0,0,1,49.142780625,29.509500000000003)"><svg viewBox="0 0 56.21443875 95.481" height="95.481" width="56.21443875"><g><svg viewBox="0 0 56.21443875 95.481" height="95.481" width="56.21443875"><g><svg viewBox="0 0 56.21443875 95.481" height="95.481" width="56.21443875"><g id="SvgjsG1649"><svg viewBox="0 0 56.21443875 95.481" height="95.481" width="56.21443875" id="SvgjsSvg1648"><g><svg viewBox="0 0 56.21443875 95.481" height="95.481" width="56.21443875"><g transform="matrix(1,0,0,1,0,0)"><svg width="56.21443875" viewBox="0.10000000000000009 -38 24.549999999999997 41" height="95.481" data-palette-color="#77c5e7"></svg></g></svg></g></svg></g></svg></g><g></g></svg></g></svg></g><g mask="url(#06151a8c-70da-4c33-bc31-c556c1796a64)"><g transform="matrix(2.21476705007552, 0, 0, 2.21476705007552, 31.120831881027065, 1.0000000000000142)"><svg xmlns="http://www.w3.org/2000/svg" xmlns:xlink="http://www.w3.org/1999/xlink" version="1.1" x="0" y="0" viewBox="29.172 15.572 41.656000000000006 68.856" style="enable-background:new 0 0 100 100;" xml:space="preserve" height="68.856" width="41.656000000000006" class="icon-none" data-fill-palette-color="accent" id="SvgjsSvg1646"><g fill="white"><path d="M29.172 70.971L50 84.428l20.828-13.458V49.903H29.172V70.971zM35.172 55.903h29.655v11.801L50 77.285l-14.828-9.581V55.903z" fill="white"></path><path d="M37.532 22.771v14.397L50 44.367l12.468-7.199V22.771L50 15.572 37.532 22.771zM56.468 33.704L50 37.438l-6.468-3.734v-7.469L50 22.5l6.468 3.734V33.704z" fill="white"></path></g></svg></g></g></svg></g><defs><mask></mask></defs></svg></g></mask><linearGradient x1="0" x2="1" y1="0.578" y2="0.595" id="83960c86-e92c-4abd-a872-2dee81ea1358"><stop stop-color="#6ee2f5" offset="0"></stop><stop stop-color="#6454f0" offset="1"></stop></linearGradient><rect width="154.5" height="154.5" fill="url(#83960c86-e92c-4abd-a872-2dee81ea1358)" mask="url(#c3a1de0b-ca08-4fa0-b435-d6bee702c6c6)" data-fill-palette-color="accent"></rect></svg><rect width="154.5" height="154.5" fill="none" stroke="none" visibility="hidden"></rect></g></svg></g></svg>